<svg version="1" xmlns="http://www.w3.org/2000/svg" width="682.667" height="682.667" viewBox="0 0 512.000000 512.000000"><path d="M208.7 16.9c-2.2 3.4-2.6 5-2.7 12.7-.1 4.9-.1 9.4-.1 10 .1 1.3 9.8 11.4 11 11.4.6 0 1.3-.5 1.6-1 1-1.7 3-1.1 4 1.2 1.4 2.9 6.3 6.4 7.4 5.2.5-.5.4-2.8-.3-5.6-.8-2.7-1.1-8.9-.9-15.1l.3-10.4-6.9-6.1c-3.8-3.4-7.8-6.2-8.9-6.2-1.1 0-3 1.6-4.5 3.9zM320 21c0 3.6-3.6 7.8-5.3 6.1-.7-.7-.7-1.8.1-3.6 1.5-3.3.8-4.5-2.7-4.5-3.3 0-4.4 1.1-6.2 6.5-1.4 4.1-5.8 10.5-7.1 10.5-1.4 0-.9-2.7.7-4 1.1-.9 1.2-1.7.4-3.1-1.1-2.1-4.8-2.6-5.3-.7-.2.7-1.2 4-2.1 7.3-1.8 6.1-6.2 15.8-9 19.8-.8 1.2-1.5 3-1.5 4s-.9 3.5-1.9 5.5c-6.4 12.2-8.8 19.7-9.4 28.9-.3 5.4-1.2 10.4-2.2 12.3-1.1 2.2-1.4 4.4-1 7.4.5 2.8.3 4.6-.4 5-1.5.9-1.4 5.9 0 5.4 1.3-.4 7.2-11.3 8.9-16.2.6-1.8 2-4.2 3-5.1 1.9-1.8 2-1.7 2 .8 0 1.4-.4 2.8-.9 3.1-.5.3-1.9 3.9-3.1 7.8-2.7 8.9-4.6 11.7-10.7 15.7-5.8 3.8-13.3 13-15.7 19.1-1 2.5-2.2 5-2.8 5.7-1 1.2 1.2 6.6 3.2 7.8 1.7 1 8-1.5 15-6 12.2-7.8 16.5-10.3 25.7-15 5.8-2.9 11.2-6.6 14.9-10.1 3.1-3 7.6-6.8 10-8.4 6.2-4.3 8.6-7.8 7.9-11.2-.6-2.3-.3-3 1.7-3.7 1.4-.5 2.8-.5 3.5.1 2.2 1.7 4.5.1 4.1-2.9-.2-2.3.2-3 2.8-3.8 3.1-1 12.4-9.7 12.4-11.5 0-.6.6-1 1.3-1 1.8 0 5.2-3.8 4.3-4.7-.3-.4-1.9.3-3.4 1.5s-6.3 4-10.7 6.2c-4.4 2.3-8.9 5-10.1 6.1-1.1 1-2.7 1.9-3.5 1.9-.7 0-3.6 1.1-6.4 2.4-9.3 4.5-18.7 8.6-19.7 8.6-.5 0-3.4 1.1-6.4 2.5-3 1.4-5.7 2.5-5.9 2.5-1.4 0-.1-3.5 2.5-7.2 1.7-2.2 3-4.5 3-5s.8-2.8 1.8-5.1 2.7-6.2 3.7-8.7c2.5-5.8 5.7-11 8.4-13.4 1.3-1.2 2.1-3.1 2.1-5.2 0-2.7.5-3.5 2.4-4 1.6-.4 3-1.9 4-4.2.8-2.1 3.1-6.6 5.1-10.1 2.8-5.1 3.4-7 2.9-9.7-.4-2.4-.2-3.8 1-4.9.9-.9 1.6-2 1.6-2.5 0-1.5-3.1-4-5-4-1 0-2.2-.5-2.5-1-.8-1.3 3.1-4.7 6.3-5.6 2.8-.8 2.8-1-.9-4.5-3.9-3.7-4.9-3.6-4.9.1zM330 20c0 .5.5 1 1 1 .6 0 1-.5 1-1 0-.6-.4-1-1-1-.5 0-1 .4-1 1zM405 51c-2.5 2.2-5.3 4-6.3 4s-2.2 1.1-2.7 2.5c-.6 1.5-1.7 2.5-2.9 2.5-1.1 0-5 2.2-8.6 5-3.6 2.7-7 5-7.4 5-1.1 0-5.1 4.4-5.1 5.7 0 .6-1.3 1.6-3 2.2-3.1 1-3.7 2.5-2 5.1.6 1 .4 2-.7 3.2-3.2 3.6-.2 3 3.3-.6 2.8-2.9 4.2-3.6 5.8-3.1 6.2 1.9 6.4 1.9 6.8-1.5.3-2.8 1.1-3.7 6.6-6.6 3.5-1.9 8.1-3.6 10.1-3.7 2.3-.1 3.7-.6 3.4-1.3-.5-1.5 4.1-4.4 7-4.4 2.9 0 6-3.2 5.5-5.7-.2-1.1-1.4-1.9-3.1-2.1-3.4-.4-3.6-2.9-.2-4.2 2.6-1 2.9-1.7 1.9-4.4-1-2.6-3.6-1.8-8.4 2.4zM227.7 67.5c-2.2 2.6-3.2 4.5-2.4 4.5.7 0 1.8-.5 2.4-1.1.6-.6 2.3-.9 3.9-.7 3.5.4 4.3 3.1 1.8 5.9-1.5 1.6-1.5 1.9-.2 1.9 2.9 0 4.1 2.6 2.8 6.4-.6 1.9-1.6 3.6-2.2 3.8-1.8.6-.1 3.7 2.7 4.8 1.7.6 2.5 1.7 2.5 3.4 0 1.8.7 2.5 3.2 3 1.7.3 3.3.4 3.5.2 1.3-1.3.3-8.7-1.6-12.6-1.3-2.5-2.5-6.7-2.7-9.4-.4-5.2-3.2-10.6-6.7-13.1-1.2-.8-2.4-1.5-2.7-1.5-.3 0-2.3 2-4.3 4.5z"/><path d="M392.7 76.6c-.3.3-.3 1.2 0 1.9.6 1.7 3.3.8 3.3-1.1 0-1.4-2.1-1.9-3.3-.8zM120.5 78c.3.5 1.3 1 2.1 1s1.2-.5.9-1c-.3-.6-1.3-1-2.1-1s-1.2.4-.9 1zM175.5 83c-1.8.7-1.9.8-.2 1.5 2 .8 4.7 0 4.7-1.5 0-1.2-1.7-1.2-4.5 0zM191.5 83.5c-.8 1.4-1.5 1.5-3.9.5-7.1-2.7-3.7 4 3.7 7.1 1.5.6 2.7 1.5 2.7 2 0 .8 14.1 7.9 15.8 7.9 1.6 0 7.6 3.2 12.3 6.7 2.6 1.8 5.2 3.3 5.7 3.3.6 0 3.2 2 5.8 4.5 6.3 6.1 11.2 6 8.1-.2-1.7-3.4-1.2-5.3 1.4-5.3 1.7 0 1.8-.3.9-2-.8-1.5-1.7-1.8-4-1.3-1.9.3-3 .1-3-.5 0-1.4-8.5-9.8-12.1-11.9-1.5-.9-3.2-2.7-3.8-3.9-.5-1.3-1.9-2.8-3.1-3.4-2.3-1.2-2.7.2-.5 2 .8.7 1.5 2.1 1.5 3.1 0 1.6-.8 1.9-4.3 1.9-3.4 0-5-.6-7.8-3.1-8.9-8.1-13.6-10.3-15.4-7.4zm5.1 4c.4.8 1.4 1.5 2.4 1.5 1.1 0 2.2.5 2.6 1.1.5.9-.4 1-3.2.4-4-.7-6.4-2.1-6.4-3.6s4-1 4.6.6zM142.2 85.2c.6 1.8 2.8 2.1 2.8.4 0-.9-.7-1.6-1.6-1.6-.9 0-1.4.5-1.2 1.2zM150 89.1c0 .5 1.5 1.6 3.4 2.4 3.3 1.4 5.1 3.9 4 5.6-.3.5-2.7.9-5.3.9-10 0-20.1 5.5-20.1 11 0 2.9.7 3.2 28.5 12.6 17 5.8 21.4 7.4 28.5 10.7 2.5 1.2 7.4 3.3 11 4.8 3.5 1.5 6.6 3.2 6.8 3.8.2.6-.9 1.6-2.5 2.2-1.5.6-4.8 1.9-7.3 2.9s-8.3 3.2-13 5c-4.7 1.8-11 4.3-14 5.7-3 1.4-7 3.2-8.7 3.9-8.2 3.5-11 4.7-13.3 6.1-2.2 1.2-6 3-13.5 6.3-1.1.5-5.1 1.8-9 3-8.3 2.5-11.7 4.1-12.2 5.6-.6 1.8 6.4 2.7 10.3 1.4 2-.7 4.4-1 5.5-.7 1.1.3 3.2.2 4.7-.2 1.5-.5 3.6-.5 4.6-.1 1.8.6 1.8.7-.5 2.3-1.3.9-3.9 1.7-5.9 1.7-2 0-5.3.9-7.5 2s-5 2-6.2 2c-1.3 0-2.3.4-2.3 1 0 2.1 17.7.3 25-2.5 1.9-.7 6.5-1.6 10.2-1.9 3.7-.3 8.1-1.2 9.7-2.1 1.7-.8 3.9-1.5 4.9-1.5 2.9 0 13.7-3.6 20.6-6.9 3.3-1.6 8.8-3.7 12.1-4.6 8.9-2.4 16.5-5.3 19.6-7.5 1.5-1.1 3-2 3.4-2 .3 0 2.9-1.5 5.8-3.3 2.9-1.8 6.5-3.9 8.1-4.7 2.9-1.5 7.8-8.2 8-11 .1-1-.8-1.5-2.4-1.5-1.4 0-5.1-1.3-8.3-2.8-4.6-2.2-5.7-3.2-5.2-4.5 1.7-3.9 1.7-6.2.2-6.2-.9 0-4.2-1.9-7.3-4.3-4.2-3.1-5.2-4.3-3.9-4.5 1-.2 2.7.1 3.9.6 3.5 1.7 8.9 3.2 9.4 2.7 1.2-1.2-5.4-6.5-10.7-8.6-3.1-1.2-6.5-2.8-7.6-3.6-1.1-.7-3.4-1.3-5.2-1.3-2.2 0-5-1.2-8.2-3.5-5.3-3.8-6.2-4.1-9-2.3-1.4.9-2.9.8-6.7-.4-2.7-.9-6.5-1.9-8.5-2.2-2.1-.4-4.2-1.3-4.9-2.1-.7-.8-2.1-1.5-3-1.5-3.2 0-5-1.1-5-3.1 0-1.2-1.5-2.6-4-3.9-4.3-2.2-7-2.6-7-.9z"/><path d="M178.5 97c-.3.5.1 1 1 1s1.3-.5 1-1c-.3-.6-.8-1-1-1-.2 0-.7.4-1 1zM245 111.1c0 1.4 3.2 6.9 4.1 6.9 1.6 0 .9-4-.8-4.7-1-.4-2.1-1.1-2.5-1.7-.4-.6-.8-.8-.8-.5zM231 129.9c0 .5.7 1.2 1.6 1.5 2.4.9 2.8.7 1.4-.9-1.4-1.7-3-2-3-.6zM316.7 144.6c-.8.8.1 2.4 1.4 2.4.5 0 .9-.7.9-1.5 0-1.5-1.2-2-2.3-.9zM295.2 146.7c-1 .4-.8 1.1.9 2.9 1.2 1.3 2.8 2.4 3.6 2.4 2.1 0 1.5 2.1-.7 2.7-1.1.3-2 1.4-2 2.4 0 2.2 3.2 4.1 5.5 3.3.9-.4 2.7-.1 4.1.7 2 1 3.1 1 6.1 0 3.3-1.2 3.8-1.2 5 .5.7 1 1.3 2.1 1.3 2.5 0 .3 2.6 1.8 5.9 3.3 7 3.1 12.7 3.3 15.9.6 2.1-1.7 2.3-2.5 1.7-6-.8-4.6-3-5.4-4.5-1.6-.5 1.4-1.9 3-3.1 3.6-1.8 1-2.6.8-4.8-.9-1.4-1.2-4.4-3-6.7-4.1-2.3-1.1-5.3-3.7-6.9-5.9-4.3-6.3-9.5-8.8-9.5-4.7 0 .8-1 1.6-2.2 2-1.7.4-2.8-.1-4.1-1.9-1.8-2.5-3-2.8-5.5-1.8zM339.5 152c-.7 1.2.2 3 1.6 3 1.2 0 1.2-2.7 0-3.5-.5-.3-1.2-.1-1.6.5z"/><path d="M327 154c0 .5.9 1 2 1s2-.5 2-1c0-.6-.9-1-2-1s-2 .4-2 1zM225.7 167.7c-1.2 1.2-.7 5.3.6 5.3 1.9 0 3.7-2.1 3.7-4.2 0-1.8-2.9-2.5-4.3-1.1zM263 172.6c0 4.3 1.8 11 3.7 13.9.9 1.3 1.1 3.9.7 8.5-.6 6.9.6 11.2 4.5 15.7 2.4 2.9 2.7 2.9 6.6-.6 3.8-3.3 3.6-4.3-.5-3.4-3.8.7-6.6-3.1-5-7.1.6-1.8.6-3.4-.2-5.1-1.2-2.8.4-8 2.8-8.9 2.5-1 1.7-5.4-1.3-6.8-2.1-1-2.8-2.1-2.8-4.3 0-2.6-.3-3-2.6-2.7-1.7.1-2.9-.3-3.3-1.3-1-2.8-2.6-1.5-2.6 2.1zM364.5 170c.3.5 1.1 1 1.6 1 .6 0 .7-.5.4-1-.3-.6-1.1-1-1.6-1-.6 0-.7.4-.4 1zM369.7 171.6c-.4.4-.4 1.7-.1 2.9.9 3.5-1 3.7-5.2.5-4.4-3.3-5.4-3.5-10.1-1.8-3.7 1.3-4.2 2.5-1.6 3.5 1 .4 2.8 2 4.1 3.5 1.3 1.5 2.9 2.8 3.5 2.8 1.5 0 12.6 14.1 15.2 19.3 2.6 5.1 12.9 16.3 16.7 18.3 3.8 2 6.6 1.3 10.3-2.6 2.8-2.9 3-3.6 2.9-10.4-.1-7.9.2-7.2-11.2-23.6-6.2-9-8.7-11-13.9-11-1.7 0-3.5-.5-3.8-1-.7-1.1-5.8-1.4-6.8-.4zM360 176c0 .5-.6 1-1.4 1-.8 0-1.8-.5-2.1-1-.3-.6.3-1 1.4-1 1.2 0 2.1.4 2.1 1zM219.2 177c-1.2 1-4.4 2.6-7 3.6-6 2.2-7.2 3.2-7.2 5.7 0 2.4-4 6.2-8.6 8.2-5.1 2.1-10.4 6.5-10.4 8.6 0 1.1.2 1.9.5 1.9 2 0 16.2-8.9 22.5-14.1 4.1-3.3 8-6.4 8.5-6.7 1.2-.8 6.5-7.8 6.5-8.6 0-1.2-2.6-.5-4.8 1.4zM312.3 180.6c-.3.8-1.6 2-2.9 2.5-1.3.4-2.4 1.2-2.4 1.6 0 .5 2.3 3.1 5 5.8 5.3 5.2 8 9.3 8 12 0 2.6-1.5 1.7-8.6-5.2-3.8-3.7-7.5-6.6-8.1-6.5-2.1.5-5.3-1.8-5.3-3.7 0-1-.8-2.6-1.9-3.5-1.7-1.6-1.8-1.6-1.4.8.6 3.2-1.2 6.4-3.9 6.8-2 .3-.6 2.1 10.3 13.3 13.1 13.5 16.7 18.2 22.9 30.3 2.5 4.8 2.2 6-.9 4-1.3-.8-2.4-.9-3-.3-1.7 1.7 6.4 10.3 10.9 11.5 2.8.7 4 1.7 4.4 3.5.7 2.7 2.5 3.1 5.8 1.4 1.8-1 2.4-.8 3.5.7.8 1.1 2.6 1.9 4.1 1.9 2.2 0 2.8.6 3.7 3.8.6 2.1 1.4 3.5 1.7 3.2.4-.4 1.4.5 2.3 1.9 2.1 3.2 5.7 3.4 7.8.3l1.5-2.2 2.4 2.2c1.3 1.3 3 2.3 3.6 2.3 1.7 0 1.5-3.5-.3-5-2.6-2.1-1.8-6.8 1.6-9.9l3-2.8-2.6-3.1c-2.3-2.7-2.5-3.6-1.9-8.1.5-4.2.3-5.2-1.5-6.7-2.6-2.3-2.6-2.9-.1-6.1 1.1-1.4 2-3.2 2-4 0-1.5-3.9-5.5-10.7-10.8-2-1.7-8.6-7.8-14.5-13.6-9.1-9.1-21.8-19.9-23.3-19.9-.2 0-.2 1.4.2 3 .5 2.6.3 2.9-1.2 2.4-.9-.4-2.8-1.8-4.1-3-2.7-2.8-5.2-3.1-6.1-.8zM104 182.5c-.7.8-1 1.8-.7 2.1.9 1 4.8-.7 4.4-1.9-.6-1.8-2.3-1.9-3.7-.2zM103.4 192.7c.3.8.6 1.7.6 1.9 0 .2.7.4 1.5.4 2.3 0 1.8-2.7-.6-3.3-1.5-.4-1.9-.2-1.5 1zM281.4 196.1c-.8 1.4 2.1 4.3 3.5 3.5 1.6-1 1.4-2-.9-3.3-1.3-.9-2.1-.9-2.6-.2zM181.2 198.2c-1.3 1.3-1.6 3.8-.4 3.8.4 0 1.3-.9 1.9-2 1.4-2.2.2-3.5-1.5-1.8z"/><path d="M276 198.6c0 .8.5 1.2 1 .9.6-.4.8-1.1.5-1.6-.9-1.4-1.5-1.1-1.5.7zM172.9 209.1c-3.4 3.6-3 5.1 1 3.9 3.4-.9 8.3-4.9 7.5-6.2-1.2-1.9-5.7-.7-8.5 2.3zM219.7 206.7c-.4.3-.7 1.1-.7 1.7 0 .6.5.5 1.2-.2.6-.6.9-1.4.7-1.7-.3-.3-.9-.2-1.2.2zM234 214.1c-.7 1.1-.9 2.3-.7 2.6.9.9 4.7-1.7 4.7-3.2 0-2.2-2.8-1.8-4 .6zM162.3 217.8c-4.1 4.4-5.4 7.2-3.3 7.2 1.5 0 9-8 9-9.6 0-2.7-1.6-2-5.7 2.4zM176 217.1c0 .5.5.7 1 .4.6-.3 1-.8 1-1.1 0-.2-.4-.4-1-.4-.5 0-1 .5-1 1.1zM212.6 223.3c-2 3.9-3.6 7.6-3.6 8.1 0 .4-.9 1.9-2 3.3-2.1 2.7-2.7 6.3-1 6.3.5 0 3.8-2.9 7.4-6.5 3.5-3.6 7-6.5 7.8-6.5 1.3 0 6.8-4.5 6.8-5.7 0-.3-1.6-.2-3.5.1-3.1.6-3.6.4-4.9-2.3-.9-1.6-2-3.2-2.5-3.5-.5-.4-2.5 2.7-4.5 6.7zM272.6 220.8c-.4.6-.6 3.7-.5 6.9.2 3.2-.3 8.9-1 12.8-3 16.2-2 23.9 4 29 4.3 3.5 8.1 3.3 12.7-.9l3.7-3.4.2-9.7.1-9.6-4.2-6.2c-2.6-3.7-5-6.1-6-6.1-1.1.1-1.6-.6-1.6-2.7 0-1.7-.6-3.2-1.5-3.5-.8-.4-1.5-1.1-1.5-1.8-.1-2-3.7-6-4.4-4.8z"/><path d="M195.4 232.3c-6.3 4.6-9.5 9.7-13.2 20.7-1.3 3.9-2.6 5.9-4.5 6.8-2.1 1-2.7 2-2.7 4.5 0 4-2.4 7.7-5.1 7.7-2.6 0-2.4-1.5 1.1-7.2 1.7-2.6 3-5.5 3-6.3 0-1.9-2.6-2-3.3-.1-.3.8-2.2 1.8-4.2 2.2-4 .7-5.2 2.3-3.7 5 1 1.9-.3 6.8-3.4 12.6-.8 1.4-1.4 3.7-1.4 5.1 0 1.4-1.3 6.7-3 11.7-1.7 5-3 9.9-3 10.9 0 .9-.9 3.3-2 5.4-1.1 2-2 4.8-2 6.1 0 1.3-.6 4.1-1.4 6.2-.7 2.2-1.6 6.8-2 10.4-.3 3.6-1.3 8.7-2.1 11.4-.8 2.7-1.5 7.3-1.5 10.2 0 2.9-.5 6.5-1 8-3.1 8.1-4.3 33.9-1.6 35.9 1.3 1 2.9 15.3 2.5 22-.7 11.1-.4 14.3 1.6 16.5 1.5 1.7 2.1 3.9 2.3 9.8.6 11.3 3.4 13.2 3.7 2.4.3-12.8 2.7-42.9 3.6-45 .5-1.4 1.4-2 2.1-1.6.8.5.9 7.8.5 27.3-.6 25.5-.4 29.3 2.5 46.1 1.5 9 4.2 16.5 5.9 16.5 1.1 0 1.5-3 1.9-15 .3-8.3.8-15.5 1.2-16.1.4-.6.8-10.6.9-22.4.1-11.7.6-22.9 1.1-24.9.6-2 1.3-6.3 1.8-9.6.4-3.3 1.3-8.1 2-10.7.7-2.7 1-5.7.7-6.8-.3-1.1.1-5.9.8-10.7.7-4.9 1.6-11.4 1.9-14.7.4-3.2 1.1-6.6 1.6-7.6.6-1 1-3 1-4.3 0-2.5 2.4-10.1 7.4-23.4 2.2-5.7 2.5-7.6 1.6-9.3-1.4-2.7-.2-9 1.9-9.7 3.7-1.1 4.5-2.3 7.6-11.8 1.8-5.5 4.7-12.7 6.4-16 1.7-3.3 3.1-6.6 3.1-7.3 0-.7 1.2-3.1 2.7-5.4 2-3.2 2.6-5.6 2.7-10.1.2-5.4.4-6 4-9.3 2.2-2 3.6-4.1 3.4-5.2-.5-2.4-4.7-2.7-8.5-.7-3 1.7-3.4 1.7-6.8.1-1.9-.9-3.5-2-3.5-2.5 0-.4 1.1-2.9 2.4-5.7 3.8-7.9 1.9-8.5-7-2.1zm4.5 14.3c-2 2.2-2.5 2.3-2.7.9-.4-1.9 1.3-3.5 3.7-3.5 1 0 .7.8-1 2.6zm-58.9 146c0 .8-.4 1.4-1 1.4-.5 0-1-.9-1-2.1 0-1.1.5-1.7 1-1.4.6.3 1 1.3 1 2.1zM148.4 232.8c-4.4 3.7-6.2 8.2-3.2 8.2 1.5 0 9.8-8.2 9.2-9.1-.8-1.4-3.7-1-6 .9z"/><path d="M176.5 247c-1.4 1.6-1.6 2.3-.7 3.2 1.4 1.4 2.7.4 3.7-3 .8-2.7-.6-2.9-3-.2zM133.5 418c-.3.5-.1 1 .4 1 .6 0 1.1-.5 1.1-1 0-.6-.2-1-.4-1-.3 0-.8.4-1.1 1z"/></svg>